PathFileType	4	(X/Y/Z)	C:\Users\°ÂÌØÂü\Desktop\20210112\bx_y_0_901-Unnamed.trc
DataRate	CameraRate	NumFrames	NumMarkers	Units	OrigDataRate	OrigDataStartFrame	OrigNumFrames
50.00	50.00	       4	0	mm	50.00	286	       457
Frame#	Time	
		

286	5.700	-658.81244	-8.34233	1043.21887	-515.96509	281.42230	1485.77893	-727.98547	142.36607	571.45673	-854.22943	92.82341	1077.45081	-721.17932	78.93171	573.48578	-707.49744	276.61594	879.06830	-649.53699	-9.76690	808.79956	-714.25128	153.49574	218.30762	-749.27460	274.74612	746.76093	-771.61182	248.06749	637.03790	-750.26605	-50.24820	718.00360	-767.57599	244.92668	574.60474	-695.28467	18.41716	523.68982	-800.16626	256.46182	498.64563	-708.72772	204.40672	535.47168	-502.73428	-80.69500	1472.12195	-663.82861	-68.16975	161.69405	-648.73474	210.73392	815.40509	-772.84851	223.71346	204.19441	-882.67688	296.08038	144.42899	-675.97742	55.08484	158.70525	-603.55042	21.01267	166.30812	-676.22888	174.82753	158.25806	-595.04688	221.56615	172.60645	-666.99457	299.51892	159.52460	-629.28882	306.99179	162.74184	-560.22937	258.13608	165.62466	-528.07855	304.32205	146.58138	-446.41165	108.14098	1774.58423	-518.08411	-72.81322	142.88443	-797.47559	173.42970	183.03252	-769.53723	-6.18803	207.02592	-796.25854	53.46394	174.88977	-649.63062	210.53642	1054.45032	-787.59326	-36.47195	485.71188	-559.67529	-37.28149	162.75780	-875.66772	-78.84837	141.14787	-725.68616	-70.94408	862.49377	-720.65753	76.30444	218.84674	-743.55182	-28.83862	614.21704	-748.78796	-25.99637	567.67175	-622.29193	-79.44722	157.16805	-506.01437	97.71039	1350.66199	
287	5.720	-656.15295	-9.03118	1044.32178	-521.93616	282.49942	1489.44482	-726.65759	142.86610	571.92426	-852.78003	93.31018	1076.57190	-720.01422	78.52345	573.37378	-705.58777	277.53848	879.47607	-647.62201	-9.35495	808.49097	-713.94904	153.29251	218.31964	-747.28955	274.89594	746.92426	-770.05481	248.64569	637.60889	-748.54852	-49.78140	717.76569	-766.89001	245.02466	574.77826	-694.13849	18.24313	523.65900	-799.51117	256.16064	498.84457	-707.78656	204.75632	535.22974	-508.66064	-79.27557	1477.32129	-663.72333	-68.26202	161.68817	-647.07147	211.69081	815.30872	-772.99078	223.55008	204.34283	-882.74310	296.04388	144.52455	-675.96497	55.21761	158.74774	-603.47522	20.85172	166.17821	-676.22888	174.82753	158.25806	-595.01129	221.69408	172.71132	-666.88928	299.34695	159.54822	-629.35968	307.07779	162.59332	-560.22937	258.13608	165.62466	-528.17468	304.20193	146.54121	-457.17007	109.59730	1780.44397	-517.97937	-72.69751	142.80649	-797.36224	173.33595	183.08749	-769.42175	-6.42593	206.98883	-796.28876	53.35806	174.88785	-647.78632	211.45648	1055.71594	-786.71228	-36.57855	486.10336	-559.85486	-37.24706	162.97179	-875.45367	-78.69685	141.27693	-723.60376	-71.08401	862.75488	-720.52051	76.32397	218.45718	-742.19196	-28.66190	614.32788	-747.27460	-25.43798	567.19019	-622.31622	-79.26931	157.27043	-509.23383	99.22556	1355.19238	
288	5.740	-654.52728	-8.99927	1044.73633	-528.48962	283.87878	1493.23120	-725.33325	143.24629	571.34729	-850.70251	93.86708	1075.88306	-718.50787	78.77286	573.33948	-703.35474	277.61935	879.33051	-645.77826	-9.14589	808.49890	-713.97864	153.39922	218.18484	-745.70905	275.45865	747.02979	-768.95203	248.14409	637.08765	-746.54620	-49.58214	717.76477	-765.46497	244.55933	574.28986	-692.43475	18.57054	523.93903	-798.46417	256.11636	498.96414	-706.71082	204.78307	535.56464	-514.67590	-78.37178	1482.61084	-663.68164	-68.34156	161.64632	-644.41644	212.28592	815.94788	-772.61633	223.77751	204.34753	-882.52484	296.03116	144.59401	-675.97742	55.08484	158.70525	-603.54095	20.87925	166.18553	-676.13361	174.94533	158.21658	-594.99725	221.76131	172.78069	-666.99457	299.51892	159.52460	-629.54016	307.15125	162.48062	-560.34827	258.25900	165.31367	-528.16528	304.39905	146.48994	-467.94888	111.24218	1786.07898	-517.99915	-72.61567	142.71404	-797.38556	173.41599	183.13765	-769.33612	-6.23541	207.05148	-796.28876	53.35806	174.88785	-646.47516	210.99037	1056.08203	-785.33215	-35.92434	486.17117	-559.73724	-37.34787	162.89241	-876.02838	-78.54763	141.55200	-721.64789	-70.47105	862.54132	-720.16882	76.63187	218.26346	-740.42444	-28.86170	614.61261	-746.25970	-25.26835	567.30450	-622.20734	-79.43150	157.31636	-512.94226	100.34412	1359.96851	
289	5.760	-652.86432	-8.83584	1045.34607	-534.63580	285.14227	1497.00525	-724.13281	142.86082	571.51807	-849.64703	94.24841	1075.04443	-717.44244	79.05665	573.23486	-701.46014	277.93607	879.83960	-643.68250	-9.34103	808.04614	-713.87292	153.54675	218.22591	-743.85504	275.39276	747.55658	-767.37201	248.12471	637.43170	-744.70050	-49.14154	718.21216	-764.24805	244.65424	574.90723	-691.69830	18.28690	523.69714	-798.03198	256.13962	499.09259	-705.82312	205.41975	535.11389	-520.45203	-77.13496	1487.25659	-663.48138	-68.10073	161.54909	-642.66235	212.61888	815.98572	-772.66400	223.84117	204.04002	-882.63275	296.33411	144.79878	-675.90906	55.10331	158.52718	-603.72552	21.07409	165.97519	-676.22888	174.82753	158.25806	-594.99725	221.76131	172.78069	-666.93182	299.50494	159.56891	-629.60767	307.05344	162.63576	-560.46045	258.22229	165.56357	-528.19830	304.30228	146.37737	-478.74191	112.98954	1791.19958	-517.95142	-72.77915	142.91470	-797.30347	173.27428	183.03708	-769.31146	-6.15064	207.02841	-795.68256	53.53440	174.21201	-643.71155	212.69905	1057.70251	-784.65875	-35.65008	485.96085	-559.77454	-37.21877	162.88885	-875.99139	-78.70409	141.37393	-719.07764	-70.90896	862.60510	-720.02069	76.45367	218.26031	-738.98822	-28.98537	614.79602	-745.16339	-25.22517	567.66656	-622.34613	-79.30450	157.20882	-516.41949	101.19321	1364.12463	
